<mxfile host="app.diagrams.net" modified="2023-10-03T14:50:36.058Z" agent="Mozilla/5.0 (Windows NT 10.0; Win64; x64) AppleWebKit/537.36 (KHTML, like Gecko) Chrome/117.0.0.0 Safari/537.36 Edg/117.0.2045.47" etag="fLhImLnsZgU6-aYlqOrY" version="21.7.5" type="device" pages="2">
  <diagram name="Page-1" id="I0mLwsUyY7hcBiMqaq6_">
    <mxGraphModel dx="2186" dy="1643" grid="0" gridSize="10" guides="1" tooltips="1" connect="1" arrows="1" fold="1" page="0" pageScale="1" pageWidth="1100" pageHeight="850" math="0" shadow="0">
      <root>
        <mxCell id="0" />
        <mxCell id="1" parent="0" />
        <mxCell id="OauNVmSVXUFMTMch8rI3-8" style="edgeStyle=none;curved=1;rounded=0;orthogonalLoop=1;jettySize=auto;html=1;entryX=0;entryY=0.5;entryDx=0;entryDy=0;fontSize=12;startSize=8;endSize=8;" edge="1" parent="1" source="OauNVmSVXUFMTMch8rI3-1" target="OauNVmSVXUFMTMch8rI3-5">
          <mxGeometry relative="1" as="geometry" />
        </mxCell>
        <mxCell id="OauNVmSVXUFMTMch8rI3-1" value="&lt;b&gt;DATA DESCRIPTION&lt;/b&gt;&lt;br&gt;&lt;ul style=&quot;font-size: 14px;&quot;&gt;&lt;li style=&quot;text-align: left;&quot;&gt;&lt;font style=&quot;font-size: 14px;&quot;&gt;Find the number of rows and columns&amp;nbsp;&amp;nbsp;&lt;/font&gt;&lt;/li&gt;&lt;li style=&quot;text-align: left;&quot;&gt;Analyze the schema, datatypes and hash out categorical and numerical features&amp;nbsp;&lt;/li&gt;&lt;li style=&quot;text-align: left;&quot;&gt;Find out the duplicate records&lt;/li&gt;&lt;li style=&quot;text-align: left;&quot;&gt;Perform a NULL check on each feature or column&amp;nbsp;&lt;/li&gt;&lt;li style=&quot;text-align: left;&quot;&gt;Find out how many unique values are there in each feature&lt;/li&gt;&lt;li style=&quot;text-align: left;&quot;&gt;Compile a statistical summary of relevant numerical features&amp;nbsp;&lt;/li&gt;&lt;/ul&gt;" style="rounded=0;whiteSpace=wrap;html=1;fontSize=16;fillColor=#f8cecc;strokeColor=#b85450;" vertex="1" parent="1">
          <mxGeometry x="-429" y="-631" width="249" height="339" as="geometry" />
        </mxCell>
        <mxCell id="OauNVmSVXUFMTMch8rI3-9" style="edgeStyle=none;curved=1;rounded=0;orthogonalLoop=1;jettySize=auto;html=1;fontSize=12;startSize=8;endSize=8;" edge="1" parent="1" source="OauNVmSVXUFMTMch8rI3-5" target="OauNVmSVXUFMTMch8rI3-6">
          <mxGeometry relative="1" as="geometry" />
        </mxCell>
        <mxCell id="OauNVmSVXUFMTMch8rI3-5" value="&lt;b&gt;UNIVARIATE ANALYSIS&lt;/b&gt;&lt;br&gt;&lt;ul style=&quot;font-size: 14px;&quot;&gt;&lt;li style=&quot;text-align: left;&quot;&gt;&lt;font style=&quot;font-size: 14px;&quot;&gt;Plot the distribution of each feature individually&amp;nbsp;&amp;nbsp;&lt;/font&gt;&lt;/li&gt;&lt;li style=&quot;text-align: left;&quot;&gt;Analyze the value counts of the categorical features like unique values and the min-max range for date&amp;nbsp;&lt;/li&gt;&lt;li style=&quot;text-align: left;&quot;&gt;Analyze the frequency distribution of the numerical features and detect the outliers&amp;nbsp;&lt;/li&gt;&lt;li style=&quot;text-align: left;&quot;&gt;Based on the frequency distribution&#39;s properties and outlier sensitivity, we will suggest the appropriate imputation&amp;nbsp;&lt;/li&gt;&lt;/ul&gt;" style="rounded=0;whiteSpace=wrap;html=1;fontSize=16;fillColor=#dae8fc;strokeColor=#6c8ebf;" vertex="1" parent="1">
          <mxGeometry x="-102" y="-631" width="249" height="339" as="geometry" />
        </mxCell>
        <mxCell id="OauNVmSVXUFMTMch8rI3-10" style="edgeStyle=none;curved=1;rounded=0;orthogonalLoop=1;jettySize=auto;html=1;entryX=0;entryY=0.5;entryDx=0;entryDy=0;fontSize=12;startSize=8;endSize=8;" edge="1" parent="1" source="OauNVmSVXUFMTMch8rI3-6" target="OauNVmSVXUFMTMch8rI3-7">
          <mxGeometry relative="1" as="geometry" />
        </mxCell>
        <mxCell id="OauNVmSVXUFMTMch8rI3-6" value="&lt;b&gt;MULTIVARIATE ANALYSIS&lt;/b&gt;&lt;br&gt;&lt;ul style=&quot;&quot;&gt;&lt;li style=&quot;font-size: 14px; text-align: left;&quot;&gt;&lt;font style=&quot;font-size: 14px;&quot;&gt;Plot two or more features against each other&amp;nbsp;&lt;/font&gt;to analyze their respective behavioral patterns&amp;nbsp;&amp;nbsp;&lt;/li&gt;&lt;li style=&quot;text-align: left;&quot;&gt;&lt;span style=&quot;background-color: initial;&quot;&gt;&lt;span style=&quot;font-size: 14px;&quot;&gt;Observe their underlying&amp;nbsp;trends w.r.t one another, seasonality based on time intervals and correlations among them&amp;nbsp;&amp;nbsp;&lt;/span&gt;&lt;/span&gt;&lt;/li&gt;&lt;li style=&quot;text-align: left;&quot;&gt;&lt;span style=&quot;background-color: initial;&quot;&gt;&lt;span style=&quot;font-size: 14px;&quot;&gt;&amp;nbsp;Aggregate&amp;nbsp; the numerical features over the categorical features and analyze how they vary&amp;nbsp;&lt;/span&gt;&lt;/span&gt;&lt;/li&gt;&lt;/ul&gt;" style="rounded=0;whiteSpace=wrap;html=1;fontSize=16;fillColor=#dae8fc;strokeColor=#6c8ebf;" vertex="1" parent="1">
          <mxGeometry x="229" y="-631" width="249" height="339" as="geometry" />
        </mxCell>
        <mxCell id="OauNVmSVXUFMTMch8rI3-7" value="&lt;b&gt;RECOMMENDATIONS&lt;br&gt;&lt;/b&gt;&lt;br&gt;&lt;ul style=&quot;font-size: 14px;&quot;&gt;&lt;li style=&quot;text-align: left;&quot;&gt;&lt;font style=&quot;font-size: 14px;&quot;&gt;Highlight the important summary points from the observations&amp;nbsp;&lt;/font&gt;&lt;/li&gt;&lt;/ul&gt;&lt;div style=&quot;text-align: left;&quot;&gt;&lt;span style=&quot;font-size: 14px;&quot;&gt;&lt;br&gt;&lt;/span&gt;&lt;/div&gt;&lt;ul style=&quot;font-size: 14px;&quot;&gt;&lt;li style=&quot;text-align: left;&quot;&gt;Give important recommendations for the next phases based on the EDA&amp;nbsp;&lt;/li&gt;&lt;/ul&gt;" style="rounded=0;whiteSpace=wrap;html=1;fontSize=16;fillColor=#d5e8d4;strokeColor=#82b366;" vertex="1" parent="1">
          <mxGeometry x="555" y="-628" width="249" height="339" as="geometry" />
        </mxCell>
        <mxCell id="OauNVmSVXUFMTMch8rI3-11" value="&lt;font size=&quot;1&quot; style=&quot;&quot;&gt;&lt;b style=&quot;font-size: 21px;&quot;&gt;EXPLORATORY DATA ANALYSIS WORKFLOW&lt;/b&gt;&lt;/font&gt;" style="shape=umlFrame;whiteSpace=wrap;html=1;pointerEvents=0;fontSize=16;width=1342;height=53;fillColor=#ffe6cc;strokeColor=#d79b00;" vertex="1" parent="1">
          <mxGeometry x="-480" y="-729" width="1342" height="496" as="geometry" />
        </mxCell>
      </root>
    </mxGraphModel>
  </diagram>
  <diagram id="ptX_BkpzX4sSGsXcEUiN" name="Page-2">
    <mxGraphModel dx="2186" dy="1243" grid="0" gridSize="10" guides="1" tooltips="1" connect="1" arrows="1" fold="1" page="0" pageScale="1" pageWidth="1100" pageHeight="850" math="0" shadow="0">
      <root>
        <mxCell id="0" />
        <mxCell id="1" parent="0" />
        <mxCell id="l-VOGZLwtcTyfTcbD9_v-11" style="edgeStyle=none;curved=1;rounded=0;orthogonalLoop=1;jettySize=auto;html=1;entryX=0;entryY=0.5;entryDx=0;entryDy=0;fontSize=12;startSize=8;endSize=8;" edge="1" parent="1" source="l-VOGZLwtcTyfTcbD9_v-1" target="l-VOGZLwtcTyfTcbD9_v-2">
          <mxGeometry relative="1" as="geometry" />
        </mxCell>
        <mxCell id="l-VOGZLwtcTyfTcbD9_v-1" value="&lt;font style=&quot;font-size: 14px;&quot;&gt;&lt;b style=&quot;&quot;&gt;&lt;font style=&quot;font-size: 14px;&quot;&gt;DATA DESCRIPTION&lt;/font&gt;&lt;/b&gt;&lt;br&gt;&lt;/font&gt;&lt;font style=&quot;font-size: 13px;&quot;&gt;Examine the following aspects:&amp;nbsp;&lt;br&gt;&lt;ul&gt;&lt;li style=&quot;text-align: left;&quot;&gt;&lt;font style=&quot;font-size: 13px;&quot;&gt;Number of rows and columns&amp;nbsp;&lt;/font&gt;&lt;/li&gt;&lt;li style=&quot;text-align: left;&quot;&gt;&lt;font style=&quot;font-size: 13px;&quot;&gt;Categorical and Numerical features&amp;nbsp;&lt;/font&gt;&lt;/li&gt;&lt;li style=&quot;text-align: left;&quot;&gt;&lt;font style=&quot;font-size: 13px;&quot;&gt;No. of null values&amp;nbsp;&lt;/font&gt;&lt;/li&gt;&lt;li style=&quot;text-align: left;&quot;&gt;&lt;font style=&quot;font-size: 13px;&quot;&gt;Unique IDs (Primary Key and/or Foreign Key)&amp;nbsp;&amp;nbsp;&lt;/font&gt;&lt;/li&gt;&lt;li style=&quot;text-align: left;&quot;&gt;&lt;font style=&quot;font-size: 13px;&quot;&gt;The datatypes&lt;/font&gt;&lt;/li&gt;&lt;li style=&quot;text-align: left;&quot;&gt;&lt;font style=&quot;font-size: 13px;&quot;&gt;Statistical summary of numerical features&amp;nbsp;&lt;/font&gt;&lt;/li&gt;&lt;/ul&gt;&lt;/font&gt;" style="rounded=0;whiteSpace=wrap;html=1;fontSize=16;fillColor=#dae8fc;strokeColor=#6c8ebf;" vertex="1" parent="1">
          <mxGeometry x="-414" y="-239" width="195" height="304" as="geometry" />
        </mxCell>
        <mxCell id="l-VOGZLwtcTyfTcbD9_v-10" style="edgeStyle=none;curved=1;rounded=0;orthogonalLoop=1;jettySize=auto;html=1;entryX=0;entryY=0.5;entryDx=0;entryDy=0;fontSize=12;startSize=8;endSize=8;" edge="1" parent="1" source="l-VOGZLwtcTyfTcbD9_v-2" target="l-VOGZLwtcTyfTcbD9_v-5">
          <mxGeometry relative="1" as="geometry" />
        </mxCell>
        <mxCell id="l-VOGZLwtcTyfTcbD9_v-2" value="&lt;font style=&quot;font-size: 14px;&quot;&gt;&lt;span style=&quot;&quot;&gt;&lt;b&gt;UNIVARIATE ANALYSIS&lt;/b&gt;&lt;/span&gt;&lt;br&gt;&lt;div style=&quot;text-align: left; font-size: 13px;&quot;&gt;&lt;ul&gt;&lt;li&gt;&lt;span style=&quot;background-color: initial;&quot;&gt;Plot the distribution of each feature&amp;nbsp;&lt;/span&gt;&lt;/li&gt;&lt;li&gt;&lt;span style=&quot;background-color: initial;&quot;&gt;Analyze frequency distribution for the categorical features using seaborn count plot&amp;nbsp;&lt;/span&gt;&lt;/li&gt;&lt;li&gt;&lt;span style=&quot;background-color: initial;&quot;&gt;Analyze the normal distribution for numerical features using seaborn box-and-whisker plot&amp;nbsp; &amp;nbsp;&lt;/span&gt;&lt;/li&gt;&lt;/ul&gt;&lt;/div&gt;&lt;/font&gt;" style="rounded=0;whiteSpace=wrap;html=1;fontSize=16;fillColor=#f8cecc;strokeColor=#b85450;" vertex="1" parent="1">
          <mxGeometry x="-110" y="-239" width="196" height="304" as="geometry" />
        </mxCell>
        <mxCell id="l-VOGZLwtcTyfTcbD9_v-9" style="edgeStyle=none;curved=1;rounded=0;orthogonalLoop=1;jettySize=auto;html=1;fontSize=12;startSize=8;endSize=8;" edge="1" parent="1" source="l-VOGZLwtcTyfTcbD9_v-5">
          <mxGeometry relative="1" as="geometry">
            <mxPoint x="504" y="-87" as="targetPoint" />
          </mxGeometry>
        </mxCell>
        <mxCell id="l-VOGZLwtcTyfTcbD9_v-5" value="&lt;font style=&quot;&quot;&gt;&lt;b style=&quot;&quot;&gt;&lt;font style=&quot;font-size: 14px;&quot;&gt;MULTIIVARIATE ANALYSIS&lt;/font&gt;&lt;/b&gt;&lt;br&gt;&lt;div style=&quot;text-align: left; font-size: 13px;&quot;&gt;&lt;ul&gt;&lt;li&gt;&lt;span style=&quot;background-color: initial;&quot;&gt;Plot the distributions of the features against one another or more&amp;nbsp;&lt;/span&gt;&lt;/li&gt;&lt;li&gt;&lt;span style=&quot;background-color: initial;&quot;&gt;Examine how the numerical features correlate to one another&amp;nbsp;&amp;nbsp;&lt;/span&gt;&lt;/li&gt;&lt;li&gt;&lt;span style=&quot;background-color: initial;&quot;&gt;Analyze how the aggregations like mean, median or sum of numerical features vary by categorical feature(s)&amp;nbsp;&amp;nbsp;&lt;/span&gt;&lt;/li&gt;&lt;/ul&gt;&lt;/div&gt;&lt;/font&gt;" style="rounded=0;whiteSpace=wrap;html=1;fontSize=16;fillColor=#f8cecc;strokeColor=#b85450;" vertex="1" parent="1">
          <mxGeometry x="199" y="-239" width="196" height="304" as="geometry" />
        </mxCell>
        <mxCell id="l-VOGZLwtcTyfTcbD9_v-6" value="&lt;font style=&quot;&quot;&gt;&lt;b style=&quot;&quot;&gt;&lt;font style=&quot;font-size: 14px;&quot;&gt;RECOMMENDATIONS&lt;/font&gt;&lt;/b&gt;&lt;br&gt;&lt;div style=&quot;text-align: left; font-size: 13px;&quot;&gt;&lt;ul&gt;&lt;li&gt;&lt;span style=&quot;background-color: initial;&quot;&gt;Highlight important summary points from the analysis&amp;nbsp;&lt;/span&gt;&lt;/li&gt;&lt;li&gt;&lt;span style=&quot;background-color: initial;&quot;&gt;Give important recommendations for the next phases based on the EDA&amp;nbsp;&lt;/span&gt;&lt;/li&gt;&lt;/ul&gt;&lt;/div&gt;&lt;/font&gt;" style="rounded=0;whiteSpace=wrap;html=1;fontSize=16;fillColor=#d5e8d4;strokeColor=#82b366;" vertex="1" parent="1">
          <mxGeometry x="504" y="-239" width="196" height="304" as="geometry" />
        </mxCell>
        <mxCell id="l-VOGZLwtcTyfTcbD9_v-25" value="&lt;b&gt;&lt;font style=&quot;font-size: 18px;&quot;&gt;EXPLORATORY DATA ANALYSIS WORKFLOW&lt;/font&gt;&lt;/b&gt;" style="shape=umlFrame;whiteSpace=wrap;html=1;pointerEvents=0;fontSize=16;width=1256;height=44;fillColor=#ffe6cc;strokeColor=#d79b00;" vertex="1" parent="1">
          <mxGeometry x="-478" y="-318" width="1256" height="452" as="geometry" />
        </mxCell>
      </root>
    </mxGraphModel>
  </diagram>
</mxfile>
